<svg version="1.0" xmlns="http://www.w3.org/2000/svg"
 width="12" height="12" viewBox="0 0 891.000000 1280.000000"
 preserveAspectRatio="xMidYMid meet">
<metadata>
Created by potrace 1.15, written by Peter Selinger 2001-2017
</metadata>
<g transform="translate(0.000000,1280.000000) scale(0.100000,-0.100000)"
fill="#000000" stroke="none">
<path d="M2865 12791 c-111 -27 -205 -148 -205 -264 0 -23 20 -152 45 -287
354 -1917 544 -3578 616 -5375 23 -552 11 -1990 -17 -2268 l-6 -57 -62 61
c-121 121 -292 242 -462 327 -603 301 -1351 277 -1927 -62 -692 -407 -1004
-1169 -767 -1877 205 -617 766 -1061 1481 -1176 148 -23 458 -23 607 0 222 35
396 89 587 182 464 226 799 607 920 1046 14 52 30 101 36 109 49 75 57 114 78
345 81 901 106 1576 98 2585 -7 908 -38 1535 -117 2445 -53 598 -144 1388
-226 1948 -13 93 -24 173 -24 178 0 5 134 -80 298 -189 1110 -741 1914 -1184
2804 -1547 408 -167 886 -327 1297 -434 84 -22 155 -42 158 -45 9 -8 82 -553
117 -866 48 -428 75 -731 111 -1255 66 -960 56 -2162 -26 -3035 -29 -316 -88
-752 -103 -767 -2 -2 -19 17 -37 44 -55 82 -156 198 -235 272 -766 716 -2037
688 -2760 -61 -226 -234 -368 -501 -431 -813 -25 -127 -25 -433 0 -560 87
-430 345 -806 731 -1065 502 -337 1180 -421 1771 -220 292 99 515 237 730 454
169 169 273 323 360 531 26 60 52 117 59 125 62 70 201 438 280 740 204 774
296 2002 257 3400 -51 1832 -252 3499 -541 4500 -72 249 -102 307 -182 354
-25 14 -127 45 -248 76 -1089 272 -2121 722 -3270 1428 -361 222 -803 511
-1295 848 -165 113 -312 206 -340 216 -52 18 -108 21 -160 9z m731 -1042
c1549 -1026 2695 -1579 4018 -1939 99 -27 182 -54 187 -61 11 -19 94 -339 128
-494 44 -208 44 -205 31 -205 -35 0 -494 144 -735 230 -385 139 -928 372
-1210 520 -49 26 -166 87 -260 135 -526 273 -1186 682 -2062 1277 -282 192
-291 199 -297 236 -3 20 -22 133 -41 250 -19 117 -35 218 -35 223 0 13 -24 27
276 -172z"/>
</g>
</svg>
